<?xml version="1.0" encoding="UTF-8"?>
<!DOCTYPE svg PUBLIC "-//W3C//DTD SVG 1.1//EN" "http://www.w3.org/Graphics/SVG/1.1/DTD/svg11.dtd">
<!-- Creator: CorelDRAW X7 -->
<svg xmlns="http://www.w3.org/2000/svg" xml:space="preserve" width="1560mm" height="1020mm" version="1.1" style="shape-rendering:geometricPrecision; text-rendering:geometricPrecision; image-rendering:optimizeQuality; fill-rule:evenodd; clip-rule:evenodd"
viewBox="0 0 156000 102000"
 xmlns:xlink="http://www.w3.org/1999/xlink">
 <defs>
  <style type="text/css">
   <![CDATA[
    .fil0 {fill:#FEFEFE}
    .fil1 {fill:#73D0BE;fill-rule:nonzero}
   ]]>
  </style>
 </defs>
 <g id="圖層_x0020_1">
  <metadata id="CorelCorpID_0Corel-Layer"/>
  <path class="fil0" d="M72758 43748l21843 0c1800,0 3260,1772 3260,3959 0,34 -1,68 -1,102 -1,34 -2,67 -3,101 -2,34 -4,68 -6,101 -2,34 -4,67 -7,100 -3,34 -6,67 -9,100 -4,33 -8,66 -12,98 -4,33 -8,66 -13,98 -5,33 -10,65 -15,97 -6,33 -12,65 -18,97 -6,31 -12,63 -19,95 -7,31 -14,63 -21,94 -7,32 -15,63 -23,94 -8,31 -16,62 -25,92 -8,31 -17,61 -26,92 -9,30 -19,60 -28,90 -10,30 -20,60 -30,89 -11,30 -21,59 -32,89 -11,29 -22,58 -34,87 -11,29 -23,57 -35,86 -12,28 -24,56 -37,84 -12,29 -25,56 -38,84 -13,28 -27,55 -40,82 -14,27 -28,54 -42,81 -14,27 -28,54 -43,80l0 0c-15,26 -30,52 -45,78 -15,26 -30,52 -46,77 -16,25 -31,51 -48,76 -16,24 -32,49 -49,74 -16,24 -33,48 -50,72 -17,24 -35,48 -52,71 -18,24 -35,47 -53,70l0 0c-18,23 -37,45 -55,68 -19,22 -37,44 -56,66 -19,22 -38,44 -57,65 -20,21 -39,42 -59,63 -20,21 -40,41 -60,61l0 0c-20,20 -40,40 -61,60 -20,19 -41,39 -62,58 -21,19 -42,37 -63,56 -21,18 -43,36 -65,54l0 0c-21,18 -43,35 -65,53l0 0c-22,17 -44,34 -67,50 -22,17 -45,33 -68,49l0 0c-22,16 -45,31 -68,46l0 0c-24,16 -47,31 -70,45l0 0c-24,15 -47,29 -71,43 -24,14 -48,27 -72,41 -24,13 -48,26 -72,38l0 0c-25,13 -49,25 -74,37l0 0c-25,11 -49,23 -74,34 -25,11 -51,22 -76,32 -25,11 -50,21 -76,30l0 0c-25,10 -51,19 -77,28 -26,9 -52,17 -78,26l0 0c-26,8 -52,15 -78,23 -26,7 -53,14 -79,21l0 0c-27,6 -54,13 -80,18l0 0c-27,6 -54,12 -81,17 -27,5 -54,9 -81,13l0 0c-27,5 -55,8 -82,12l0 0c-27,3 -55,6 -83,9l0 0c-27,2 -55,4 -83,6l0 0c-27,2 -55,3 -83,4l0 0c-28,1 -56,1 -84,1l0 0 0 0 -1 0 0 0 0 0 0 0 0 0 0 0 0 0 0 0 0 0 -1 0 0 0 0 0 0 0 0 0 -6 0 0 0 0 0 0 0 0 0 0 0 0 0 -1 0 0 0 0 0 0 0 0 0 0 0 0 0 -21834 0 0 0c-1801,0 -3261,-1772 -3261,-3958 0,-2187 1460,-3959 3261,-3959z"/>
  <path class="fil1" d="M93649 46304l0 1632 720 0 -1439 1632 -1438 -1632 719 0 0 -1632 1438 0zm0 816m360 816m-360 816m-1438 0m-359 -816m359 -816m719 -816"/>
 </g>
</svg>
