<?xml version="1.0" encoding="UTF-8"?>
<!DOCTYPE svg PUBLIC "-//W3C//DTD SVG 1.1//EN" "http://www.w3.org/Graphics/SVG/1.1/DTD/svg11.dtd">
<!-- Creator: CorelDRAW X7 -->
<svg xmlns="http://www.w3.org/2000/svg" xml:space="preserve" width="1560mm" height="1020mm" version="1.1" style="shape-rendering:geometricPrecision; text-rendering:geometricPrecision; image-rendering:optimizeQuality; fill-rule:evenodd; clip-rule:evenodd"
viewBox="0 0 156000 102000"
 xmlns:xlink="http://www.w3.org/1999/xlink">
 <defs>
  <style type="text/css">
   <![CDATA[
    .str0 {stroke:#73D0BE;stroke-width:500;stroke-dasharray:2500.000000 2500.000000}
    .fil1 {fill:none}
    .fil0 {fill:#004334}
   ]]>
  </style>
 </defs>
 <g id="圖層_x0020_1">
  <metadata id="CorelCorpID_0Corel-Layer"/>
  <path class="fil0" d="M45596 57464c-130,-162 -133,-70 -286,-145 -873,-429 -221,-946 216,-1609 234,-356 189,-301 170,-820 -13,-320 -7,-663 -7,-986l407 7 -4 -366c2,-7 9,-21 11,-27 53,-170 367,100 433,149 289,217 25,229 409,195 -17,533 25,953 25,1443l-72 2399c371,63 2136,230 2418,88 159,-79 172,-264 142,-474 -41,-286 -459,-561 -524,-789 -165,-578 -33,-3566 -14,-4476 9,-428 5,-872 46,-1243l66 -576c12,-191 41,-390 69,-568 86,-536 283,-932 666,-1296 923,-876 2583,-142 3380,-1237 498,-682 279,-1658 -498,-1935 -483,-173 -273,-68 -729,-197 -238,-67 -645,-233 -844,-378l-376 -532c-150,-201 -229,-348 -481,-500 -283,-170 -453,-311 -764,-488 -54,-40 -122,-77 -177,-126 -55,-50 -111,-122 -169,-173 -409,-360 -964,-1482 -1186,-2034 -327,-811 -941,803 -1088,1107l-455 1023c-141,361 6,153 -527,496 -468,301 -318,304 -758,755 -961,988 -632,2260 -1376,3620 -202,368 -1020,1252 -1511,1520 -822,447 -1336,793 -1949,1530 -660,795 -528,798 -834,1704 -134,395 -228,1328 -207,1795 21,481 168,1256 291,1715 211,794 523,1588 1414,1584 989,-4 1989,27 2989,16 337,-3 675,27 946,22 275,-6 676,78 738,-193zm-832 -11767c-33,319 -158,861 -246,1166 -126,436 -768,1550 -1007,1797 -575,596 -794,755 -1552,1253 -304,201 -546,350 -811,584l-902 1025c-479,877 -727,1987 -591,3008 56,420 47,830 189,1209 65,172 127,333 208,478 48,87 70,139 115,224 501,940 764,603 1682,703 530,58 1413,48 1987,25 189,-332 243,-1238 368,-1651 232,-759 77,-1027 43,-1769 -191,-31 -193,-48 -309,-146 45,-362 179,8 256,-964 35,-434 61,-689 197,-1056 140,-376 236,-475 522,-685 599,-438 631,31 517,-1193 -21,-216 53,-266 317,-513 49,-45 21,-30 88,-65 468,-249 1423,-266 1551,132 97,301 260,699 -79,850 66,1233 -221,982 -723,980 -37,105 -238,262 -133,765 83,397 497,761 732,1091 263,370 208,507 196,734 -14,274 -5,628 -6,908 -2,837 -49,886 12,1782 23,327 9,730 1,1055l1651 20c94,-267 -164,-226 -309,-481 -120,-209 -118,-440 -168,-704 -37,-199 -150,-454 -180,-635 -45,-265 16,-2123 49,-2391 29,-244 28,-533 56,-774 106,-899 -29,-1552 121,-2455 122,-731 183,-736 368,-1344 60,-199 192,-332 341,-479 219,-216 857,-548 1111,-589l750 -109c152,-18 276,-2 415,-18 105,-13 210,-54 337,-77 402,-70 818,-310 988,-712 116,-273 155,-431 69,-704 -71,-226 -178,-396 -358,-480 -584,-272 -1611,-117 -1996,-801 -5,-10 -22,-39 -28,-49l-214 -316c-412,-440 -315,-488 -961,-742 -582,-229 -1553,-1701 -1767,-2318 -5,-14 -26,-69 -31,-80 -100,-206 -798,1858 -906,2135 -19,47 -29,74 -53,136 -135,350 -423,81 -874,413 -124,91 -426,466 -517,618 -212,349 -467,735 -516,1209z"/>
  <path class="fil0" d="M37256 58345c208,0 385,42 534,126 148,84 260,203 337,358 76,155 114,337 114,546 0,154 -21,294 -63,420 -42,127 -104,236 -188,329 -83,92 -186,163 -307,212 -122,49 -261,74 -418,74 -157,0 -297,-25 -420,-76 -124,-50 -226,-121 -309,-213 -83,-92 -145,-202 -188,-331 -42,-129 -63,-268 -63,-418 0,-154 22,-294 66,-422 44,-128 108,-237 192,-327 83,-90 185,-159 305,-206 119,-48 256,-72 408,-72zm575 1027c0,-146 -24,-273 -71,-380 -47,-107 -115,-188 -202,-244 -87,-55 -188,-82 -302,-82 -80,0 -155,15 -224,46 -68,30 -127,74 -177,133 -49,58 -88,132 -117,222 -28,91 -43,192 -43,305 0,114 15,216 43,308 29,92 69,168 122,228 52,61 112,106 179,136 68,30 142,45 223,45 103,0 198,-26 285,-78 87,-51 156,-131 207,-240 51,-108 77,-241 77,-399zm870 812l0 -1613c0,-74 17,-131 50,-169 33,-38 78,-57 134,-57 56,0 101,19 136,57 34,38 51,94 51,169l0 1613c0,75 -17,131 -52,169 -35,38 -80,57 -135,57 -54,0 -99,-20 -132,-59 -34,-39 -52,-95 -52,-167zm1914 13l0 -36c-49,57 -99,103 -148,139 -48,36 -101,63 -158,82 -56,18 -118,28 -186,28 -88,0 -171,-19 -247,-57 -75,-38 -141,-91 -197,-161 -55,-70 -97,-152 -126,-247 -28,-94 -43,-196 -43,-306 0,-233 57,-414 171,-544 113,-130 263,-195 448,-195 107,0 198,19 271,56 73,36 146,93 215,170l0 -549c0,-77 16,-134 46,-173 31,-39 74,-59 130,-59 56,0 100,18 130,54 31,36 46,89 46,159l0 1639c0,71 -16,124 -49,160 -33,35 -75,53 -127,53 -51,0 -93,-19 -126,-56 -33,-36 -50,-89 -50,-157zm-731 -546c0,101 16,187 47,258 31,71 74,124 129,159 55,36 114,54 178,54 66,0 125,-17 179,-51 54,-34 97,-86 129,-156 33,-71 49,-158 49,-264 0,-98 -16,-183 -49,-254 -32,-72 -75,-126 -130,-164 -55,-38 -115,-56 -181,-56 -67,0 -128,19 -182,57 -53,39 -95,94 -124,166 -30,73 -45,156 -45,251zm4070 -960l-797 0 0 511 666 0c62,0 108,14 138,41 31,28 46,65 46,111 0,47 -15,83 -46,111 -31,27 -77,41 -138,41l-666 0 0 657c0,84 -19,146 -57,186 -37,41 -86,61 -144,61 -60,0 -109,-21 -147,-62 -37,-41 -57,-102 -57,-185l0 -1537c0,-58 9,-105 26,-142 18,-37 45,-64 81,-80 37,-17 84,-25 141,-25l954 0c65,0 113,14 144,42 31,29 47,67 47,113 0,47 -16,86 -47,114 -31,29 -79,43 -144,43zm868 1182l0 311c0,75 -18,131 -53,169 -35,38 -80,57 -134,57 -54,0 -98,-19 -132,-57 -35,-39 -52,-95 -52,-169l0 -1036c0,-167 61,-250 181,-250 61,0 106,19 133,58 27,39 42,97 45,174 44,-77 90,-135 137,-174 47,-39 109,-58 187,-58 78,0 154,19 228,58 73,39 110,91 110,156 0,46 -16,83 -47,112 -31,30 -65,45 -102,45 -13,0 -46,-9 -98,-25 -53,-17 -99,-26 -139,-26 -54,0 -98,15 -133,43 -35,29 -62,71 -81,128 -19,56 -32,123 -39,200 -7,78 -11,173 -11,284zm1364 -764l0 1075c0,74 -17,130 -53,169 -35,38 -80,57 -134,57 -54,0 -98,-20 -132,-59 -34,-39 -52,-95 -52,-167l0 -1064c0,-74 18,-129 52,-167 34,-37 78,-55 132,-55 54,0 99,18 134,55 36,38 53,90 53,156zm-183 -384c-52,0 -96,-16 -133,-48 -36,-31 -55,-77 -55,-135 0,-52 19,-95 57,-129 37,-34 81,-51 131,-51 48,0 90,15 128,46 37,31 55,76 55,134 0,58 -18,102 -54,134 -36,32 -79,49 -129,49zm1745 1021l-727 0c1,84 18,159 51,223 33,65 77,113 132,146 55,33 116,49 182,49 44,0 85,-5 122,-16 37,-10 72,-26 106,-48 35,-23 67,-46 96,-72 29,-26 67,-60 113,-104 19,-16 46,-24 82,-24 38,0 69,10 93,31 23,21 35,50 35,89 0,33 -13,72 -40,117 -26,45 -66,88 -119,129 -53,41 -120,76 -200,103 -80,27 -173,41 -277,41 -239,0 -425,-69 -557,-205 -133,-136 -199,-321 -199,-554 0,-110 17,-212 49,-306 33,-94 81,-174 143,-242 63,-67 140,-118 231,-154 92,-36 194,-54 305,-54 146,0 271,30 374,92 104,61 182,140 234,238 52,97 78,196 78,297 0,94 -27,154 -81,182 -53,28 -128,42 -226,42zm-727 -212l674 0c-9,-127 -43,-222 -103,-285 -59,-63 -137,-95 -235,-95 -93,0 -168,32 -228,96 -59,64 -96,159 -108,284zm1824 -431l0 45c65,-86 137,-150 215,-190 77,-40 167,-60 268,-60 98,0 185,21 263,64 77,42 135,103 173,181 24,45 40,94 48,147 7,53 10,120 10,201l0 693c0,74 -17,130 -51,169 -34,38 -78,57 -133,57 -55,0 -100,-20 -135,-59 -35,-39 -52,-95 -52,-167l0 -621c0,-122 -17,-216 -51,-281 -34,-65 -102,-97 -204,-97 -66,0 -126,19 -181,59 -54,40 -94,94 -119,163 -19,56 -28,159 -28,311l0 466c0,75 -18,131 -52,169 -35,38 -80,57 -135,57 -54,0 -98,-20 -132,-59 -35,-39 -52,-95 -52,-167l0 -1075c0,-71 15,-124 46,-159 31,-35 73,-52 127,-52 32,0 62,7 88,23 26,15 47,38 63,69 16,31 24,69 24,113zm2506 1094l0 -36c-50,57 -99,103 -148,139 -48,36 -101,63 -158,82 -56,18 -118,28 -186,28 -89,0 -171,-19 -247,-57 -75,-38 -141,-91 -197,-161 -55,-70 -97,-152 -126,-247 -28,-94 -43,-196 -43,-306 0,-233 57,-414 171,-544 113,-130 263,-195 448,-195 107,0 197,19 271,56 73,36 145,93 215,170l0 -549c0,-77 16,-134 46,-173 30,-39 74,-59 130,-59 56,0 100,18 130,54 30,36 46,89 46,159l0 1639c0,71 -16,124 -49,160 -33,35 -75,53 -127,53 -51,0 -93,-19 -126,-56 -33,-36 -50,-89 -50,-157zm-731 -546c0,101 16,187 47,258 31,71 74,124 129,159 54,36 114,54 178,54 66,0 125,-17 179,-51 54,-34 97,-86 129,-156 33,-71 49,-158 49,-264 0,-98 -16,-183 -49,-254 -32,-72 -75,-126 -130,-164 -55,-38 -115,-56 -181,-56 -68,0 -128,19 -182,57 -53,39 -95,94 -125,166 -29,73 -44,156 -44,251zm2793 273c0,103 -25,190 -75,263 -50,73 -124,129 -221,166 -98,38 -216,57 -356,57 -134,0 -248,-21 -344,-62 -95,-40 -165,-91 -211,-153 -45,-61 -68,-122 -68,-184 0,-41 15,-76 44,-104 29,-30 66,-44 110,-44 39,0 69,10 90,29 21,19 41,45 60,80 38,66 84,116 137,149 53,33 125,49 217,49 74,0 135,-17 183,-50 48,-33 71,-71 71,-114 0,-65 -24,-113 -74,-143 -49,-30 -131,-59 -244,-86 -128,-32 -232,-65 -313,-100 -80,-35 -144,-81 -192,-139 -48,-57 -72,-128 -72,-211 0,-75 22,-145 66,-211 45,-67 110,-119 197,-159 87,-39 192,-59 314,-59 97,0 183,9 259,29 77,20 141,47 192,81 52,34 91,71 118,112 26,41 40,80 40,120 0,42 -14,77 -43,104 -29,28 -70,41 -122,41 -38,0 -71,-10 -98,-32 -26,-22 -57,-55 -92,-98 -28,-37 -61,-66 -99,-88 -38,-22 -90,-32 -155,-32 -67,0 -123,14 -168,43 -44,28 -66,64 -66,107 0,39 16,71 49,96 33,25 76,46 132,62 55,16 131,36 229,60 115,28 209,62 282,101 73,39 129,85 166,138 38,53 57,114 57,182z"/>
  <path class="fil1 str0" d="M45600 35112c-5803,-194 -11250,2791 -14208,7787 -2959,4995 -2959,11207 0,16202 2958,4996 8405,7981 14208,7787"/>
 </g>
</svg>
