<?xml version="1.0" encoding="UTF-8"?>
<!DOCTYPE svg PUBLIC "-//W3C//DTD SVG 1.1//EN" "http://www.w3.org/Graphics/SVG/1.1/DTD/svg11.dtd">
<!-- Creator: CorelDRAW X7 -->
<svg xmlns="http://www.w3.org/2000/svg" xml:space="preserve" width="1560mm" height="1020mm" version="1.1" style="shape-rendering:geometricPrecision; text-rendering:geometricPrecision; image-rendering:optimizeQuality; fill-rule:evenodd; clip-rule:evenodd"
viewBox="0 0 156000 102000"
 xmlns:xlink="http://www.w3.org/1999/xlink">
 <defs>
  <style type="text/css">
   <![CDATA[
    .fil2 {fill:#62963B}
    .fil0 {fill:#95BC74}
    .fil3 {fill:#9AC956}
    .fil1 {fill:#C8EA79}
   ]]>
  </style>
 </defs>
 <g id="圖層_x0020_1">
  <metadata id="CorelCorpID_0Corel-Layer"/>
  <g id="_2491137722912">
   <path class="fil0" d="M96684 86396c191,1270 507,1348 2988,2762 4680,2667 -1694,-747 7657,4542 1194,675 9425,5772 11389,5412 1570,-289 4185,-1838 5778,-2294 -407,-7788 -4210,-5309 -746,-18196 658,-2450 1681,-5698 2067,-8171 -5830,62 -12415,3868 -16279,6417 -2383,1573 -4252,2956 -6498,4674 -992,759 -5541,4677 -6356,4854z"/>
   <path class="fil0" d="M49222 96467c2732,-538 3748,-809 6088,-1811 385,-165 481,-188 866,-378 457,-227 48,-11 541,-296l372 -246c-880,-137 -3029,-1225 -3548,-1626l2657 -23226c-5711,247 -19546,9881 -23727,13285l-5951 7084c-12025,12099 16380,8459 22702,7214z"/>
   <path class="fil1" d="M135106 74276c-465,-383 -931,-748 -1337,-980 -290,-167 -479,-244 -708,-374 -3361,-1907 -2680,-2216 -7244,-2471 -386,2473 -1409,5721 -2067,8171 -3584,13323 -4547,20792 -3237,20017 854,-506 3057,-1569 4881,-2432 1797,-594 3580,-1517 5381,-2274 3118,-1310 8181,-3409 10770,-5342 12224,-868 -3425,-11836 -6439,-14315z"/>
   <path class="fil1" d="M57089 93736c2588,-2031 4823,-3704 7662,-5507 1279,-813 2741,-1731 4247,-2513 6085,-1893 5464,-812 944,-7394 -1400,-2131 -3662,-4725 -5563,-6124 -2913,-2144 -4682,-3137 -8181,-3314l-2657 23226c519,401 2668,1489 3548,1626z"/>
   <path class="fil2" d="M118718 99112c-902,-1169 -10344,-21463 -30196,-16344 -661,170 3164,868 2474,1114 -754,1337 5047,4162 5367,4406 2641,2007 17268,13706 17913,13850l41724 -363 0 -18987c1410,-13246 -31767,8746 -37282,16324z"/>
   <path class="fil3" d="M96363 88288c-320,-244 -5668,-4131 -5367,-4406 -1037,-1462 -4057,-2442 -6332,-2705 257,981 -2108,8107 -2626,10093 -2053,4704 -5583,10868 -3433,10868 35671,0 36755,-10 39128,-31 2124,-18 -14015,-9367 -21370,-13819z"/>
   <path class="fil3" d="M23881 92086c-1379,-133 -7615,-5006 -9725,-4029 -1281,593 -3594,1604 -4025,2108 -1315,1534 2071,2478 2291,5794 103,1547 778,4274 3958,3905 720,-83 6375,-5308 7501,-7778z"/>
   <path class="fil2" d="M73586 83411c-362,347 -3915,1956 -4588,2305 -1506,782 -2968,1700 -4247,2513 -7512,4772 -6971,6554 -15529,8238 -18192,3582 -19137,-4942 -25341,-4381 -1126,2470 -6781,7695 -7501,7778 -3285,381 -1258,-8534 -2340,-10505l-1624 346c-1486,-253 -4946,1712 -6046,2200l-6370 4054 0 5815 80269 364c-1050,-2080 1124,-8397 1769,-10868 518,-1986 2883,-9112 2626,-10093 -2079,-68 -4204,98 -6078,609 -1617,441 -3695,1371 -5000,1625z"/>
  </g>
 </g>
</svg>
