<?xml version="1.0" encoding="iso-8859-1"?>
<!-- Generator: Adobe Illustrator 19.0.0, SVG Export Plug-In . SVG Version: 6.00 Build 0)  -->
<svg version="1.1" id="Layer_1" xmlns="http://www.w3.org/2000/svg" xmlns:xlink="http://www.w3.org/1999/xlink" x="0px" y="0px"
	 viewBox="0 0 512 512" style="enable-background:new 0 0 512 512;" xml:space="preserve">
<path style="fill:#2C6991;" d="M299.955,366.114h-87.911c-9.261,0-16.412,8.018-16.412,17.278v66.585
	c0,9.261,7.329,16.769,16.59,16.769s16.679-7.517,16.679-16.779l-0.089-0.01h54.018v0.01c0,9.261,7.508,16.773,16.769,16.773
	s16.769-7.503,16.769-16.764v-66.585C316.367,374.131,309.217,366.114,299.955,366.114z"/>
<path style="fill:#528FB3;" d="M256,366.114h-43.955c-9.261,0-16.412,8.018-16.412,17.278v66.585c0,9.261,7.329,16.769,16.59,16.769
	s16.679-7.517,16.679-16.779l-0.089-0.01l27.187,0.01V366.114z"/>
<path style="fill:#4AD0FF;" d="M387.594,442.131H124.406c-9.261,0-16.769,7.508-16.769,16.769s7.508,16.769,16.769,16.769h263.188
	c9.261,0,16.769-7.508,16.769-16.769S396.855,442.131,387.594,442.131z"/>
<path style="fill:#99E5FF;" d="M256,442.131H124.406c-9.261,0-16.769,7.508-16.769,16.769s7.508,16.769,16.769,16.769H256V442.131z"
	/>
<path style="fill:#4AD0FF;" d="M512,71.653c0-19.507-15.814-35.321-35.321-35.321H35.321C15.814,36.332,0,52.146,0,71.653v281.496
	c0,19.507,15.814,35.321,35.321,35.321h441.356c19.507,0,35.321-15.814,35.321-35.321V71.653H512z"/>
<path style="fill:#99E5FF;" d="M256,36.332H35.321C15.814,36.332,0,52.146,0,71.653v281.496c0,19.507,15.814,35.321,35.321,35.321
	H256V36.332z"/>
<path style="fill:#2C6991;" d="M463.93,91.81c0-7.01-6.28-12.998-13.796-12.998H61.866c-7.516,0-13.796,5.986-13.796,12.998v241.184
	c0,7.01,6.28,12.997,13.796,12.997h388.268c7.516,0,13.796-5.986,13.796-12.997V91.81z"/>
<path style="fill:#528FB3;" d="M256,78.812H61.866c-7.516,0-13.796,5.986-13.796,12.998v241.184c0,7.01,6.28,12.997,13.796,12.997
	H256V78.812z"/>
<g>
</g>
<g>
</g>
<g>
</g>
<g>
</g>
<g>
</g>
<g>
</g>
<g>
</g>
<g>
</g>
<g>
</g>
<g>
</g>
<g>
</g>
<g>
</g>
<g>
</g>
<g>
</g>
<g>
</g>
</svg>
